<?xml version="1.0" encoding="UTF-8" standalone="no"?>
<!-- Generator: Adobe Illustrator 25.0.1, SVG Export Plug-In . SVG Version: 6.00 Build 0)  -->

<svg
   xmlns:dc="http://purl.org/dc/elements/1.1/"
   xmlns:cc="http://creativecommons.org/ns#"
   xmlns:rdf="http://www.w3.org/1999/02/22-rdf-syntax-ns#"
   xmlns:svg="http://www.w3.org/2000/svg"
   xmlns="http://www.w3.org/2000/svg"
   xmlns:sodipodi="http://sodipodi.sourceforge.net/DTD/sodipodi-0.dtd"
   xmlns:inkscape="http://www.inkscape.org/namespaces/inkscape"
   version="1.1"
   id="Capa_1"
   x="0px"
   y="0px"
   viewBox="0 0 24 24"
   xml:space="preserve"
   sodipodi:docname="Codetogether-icon.svg"
   width="24"
   height="24"
   inkscape:version="0.92.5 (2060ec1f9f, 2020-04-08)"
><metadata
   id="metadata218"><rdf:RDF><cc:Work
       rdf:about=""><dc:format>image/svg+xml</dc:format><dc:type
         rdf:resource="http://purl.org/dc/dcmitype/StillImage" /><dc:title></dc:title></cc:Work></rdf:RDF></metadata><defs
   id="defs216" /><sodipodi:namedview
   pagecolor="#ffffff"
   bordercolor="#666666"
   borderopacity="1"
   objecttolerance="10"
   gridtolerance="10"
   guidetolerance="10"
   inkscape:pageopacity="0"
   inkscape:pageshadow="2"
   inkscape:window-width="1920"
   inkscape:window-height="1025"
   id="namedview214"
   showgrid="false"
   fit-margin-top="0"
   fit-margin-left="0"
   fit-margin-right="0.1"
   fit-margin-bottom="0"
   inkscape:zoom="14"
   inkscape:cx="27.769999"
   inkscape:cy="27.990018"
   inkscape:window-x="0"
   inkscape:window-y="25"
   inkscape:window-maximized="1"
   inkscape:current-layer="Capa_1"/>
<g
   id="g211"
   transform="matrix(0.42872454,0,0,0.42872454,-0.95605572,-0.85744908)">
	<g
   id="g197">
		<path
   d="M 30.22,57.99 C 14.78,57.99 2.23,45.43 2.23,30 2.23,14.57 14.79,2 30.22,2 c 15.44,0 27.99,12.56 27.99,27.99 0,15.43 -12.55,28 -27.99,28 z m 0,-53.39 c -14,0 -25.39,11.39 -25.39,25.39 0,14 11.39,25.39 25.39,25.39 14,0 25.39,-11.39 25.39,-25.39 0,-14 -11.39,-25.39 -25.39,-25.39 z"
   id="path195"
   inkscape:connector-curvature="0" />
	</g>
	<g
   id="g201">
		<path
   d="m 20.6,40.2 c -0.47,0 -0.94,-0.2 -1.26,-0.59 l -7.17,-8.56 c -0.52,-0.62 -0.51,-1.52 0.01,-2.13 l 7.28,-8.52 c 0.59,-0.69 1.63,-0.77 2.33,-0.18 0.69,0.59 0.77,1.63 0.18,2.33 l -6.38,7.45 6.27,7.49 c 0.59,0.7 0.49,1.74 -0.2,2.32 -0.31,0.26 -0.68,0.39 -1.06,0.39 z"
   id="path199"
   inkscape:connector-curvature="0" />
	</g>
	<g
   id="g205">
		<path
   d="m 39.88,40.2 c -0.37,0 -0.75,-0.13 -1.06,-0.39 -0.7,-0.59 -0.79,-1.63 -0.2,-2.32 L 44.89,30 38.52,22.55 c -0.59,-0.69 -0.51,-1.73 0.18,-2.33 0.69,-0.59 1.73,-0.51 2.33,0.18 l 7.28,8.52 c 0.52,0.61 0.53,1.51 0.01,2.13 l -7.17,8.56 C 40.81,40 40.35,40.2 39.88,40.2 Z"
   id="path203"
   inkscape:connector-curvature="0" />
	</g>
	<g
   id="g209">
		<path
   d="m 26.65,39.98 c -0.22,0 -0.44,-0.04 -0.65,-0.14 -0.84,-0.36 -1.22,-1.33 -0.86,-2.17 l 7.28,-16.86 c 0.36,-0.84 1.33,-1.22 2.17,-0.86 0.84,0.36 1.22,1.33 0.86,2.17 l -7.28,16.86 c -0.28,0.63 -0.88,1 -1.52,1 z"
   id="path207"
   inkscape:connector-curvature="0" />
	</g>
</g>
</svg>