<?xml version="1.0" encoding="UTF-8"?>
<svg v-show="state.audio.muted" viewBox="0 0 22 22" xmlns="http://www.w3.org/2000/svg">
<path d="m7.333 8.65v2.35a3.668 3.668 0 0 0 2.757 3.553 0.928 0.928 0 0 0-7e-3 0.114v1.757a5.501 5.501 0 0 1-4.583-5.424 0.917 0.917 0 1 0-1.833 0c0 3.74 2.799 6.826 6.416 7.277v0.973a0.917 0.917 0 0 0 1.834 0v-0.973a7.297 7.297 0 0 0 3.568-1.475l3.091 3.092a0.932 0.932 0 1 0 1.318-1.318l-3.091-3.091 0.01-0.013-1.311-1.311-0.01 0.013-1.325-1.325 8e-3 -0.014-1.395-1.395a1.24 1.24 0 0 1-4e-3 0.018l-3.61-3.609v-0.023l-1.832-1.833v0.023l-3.909-3.91a0.932 0.932 0 1 0-1.318 1.318l5.226 5.226zm1.834 1.834v0.516a1.833 1.833 0 0 0 2.291 1.776l-2.291-2.292zm3.682 3.683c-0.29 0.17-0.606 0.3-0.94 0.386a0.928 0.928 0 0 1 8e-3 0.114v1.757a5.47 5.47 0 0 0 2.257-0.932l-1.325-1.325zm1.818-3.476-1.834-1.834v-3.357a1.833 1.833 0 0 0-3.644-0.287l-1.43-1.43a3.666 3.666 0 0 1 6.908 1.717v5.19zm1.665 1.665 1.447 1.447c0.357-0.864 0.554-1.81 0.554-2.803a0.917 0.917 0 1 0-1.833 0c0 0.468-0.058 0.922-0.168 1.356z" clip-rule="evenodd" fill="#900" fill-rule="evenodd"/>
</svg>
