<?xml version="1.0" encoding="UTF-8"?>
<svg width="16" height="16" viewBox="1 1 21 21" xmlns="http://www.w3.org/2000/svg">
<path d="M16 6a4 4 0 00-8 0v6a4.002 4.002 0 003.008 3.876c-.005.04-.008.082-.008.124v1.917A6.002 6.002 0 016 12a1 1 0 10-2 0 8.001 8.001 0 007     7.938V21a1 1 0 102 0v-1.062A8.001 8.001 0 0020 12a1 1 0 10-2 0 6.002 6.002 0 01-5     5.917V16c0-.042-.003-.083-.008-.124A4.002 4.002 0 0016 12V6zm-4-2a2 2 0 00-2 2v6a2 2 0 104 0V6a2 2 0 00-2-2z" clip-rule="evenodd" fill="#1a85ff" fill-rule="evenodd"/>
</svg>
