<?xml version="1.0" encoding="UTF-8" standalone="no"?>
<!-- Generator: Adobe Illustrator 16.2.1, SVG Export Plug-In . SVG Version: 6.00 Build 0)  -->

<svg
   xmlns:dc="http://purl.org/dc/elements/1.1/"
   xmlns:cc="http://creativecommons.org/ns#"
   xmlns:rdf="http://www.w3.org/1999/02/22-rdf-syntax-ns#"
   xmlns:svg="http://www.w3.org/2000/svg"
   xmlns="http://www.w3.org/2000/svg"
   xmlns:sodipodi="http://sodipodi.sourceforge.net/DTD/sodipodi-0.dtd"
   xmlns:inkscape="http://www.inkscape.org/namespaces/inkscape"
   version="1.1"
   id="Layer_1"
   x="0px"
   y="0px"
   width="512px"
   height="512px"
   viewBox="0 0 512 512"
   style="enable-background:new 0 0 512 512;"
   xml:space="preserve"
   sodipodi:docname="close.svg"
   inkscape:version="0.92.5 (2060ec1f9f, 2020-04-08)"><metadata
   id="metadata9"><rdf:RDF><cc:Work
       rdf:about=""><dc:format>image/svg+xml</dc:format><dc:type
         rdf:resource="http://purl.org/dc/dcmitype/StillImage" /><dc:title></dc:title></cc:Work></rdf:RDF></metadata><defs
   id="defs7"><filter
     style="color-interpolation-filters:sRGB;"
     inkscape:label="Invert"
     id="filter15"><feColorMatrix
       type="hueRotate"
       values="180"
       result="color1"
       id="feColorMatrix11" /><feColorMatrix
       values="-1 0 0 0 1 0 -1 0 0 1 0 0 -1 0 1 -0.21 -0.72 -0.07 2 0 "
       result="fbSourceGraphic"
       id="feColorMatrix13" /><feColorMatrix
       result="fbSourceGraphicAlpha"
       in="fbSourceGraphic"
       values="0 0 0 -1 0 0 0 0 -1 0 0 0 0 -1 0 0 0 0 1 0"
       id="feColorMatrix17" /><feColorMatrix
       id="feColorMatrix19"
       type="hueRotate"
       values="180"
       result="color1"
       in="fbSourceGraphic" /><feColorMatrix
       id="feColorMatrix21"
       values="-1 0 0 0 1 0 -1 0 0 1 0 0 -1 0 1 -0.21 -0.72 -0.07 2 0 "
       result="fbSourceGraphic" /><feColorMatrix
       result="fbSourceGraphicAlpha"
       in="fbSourceGraphic"
       values="0 0 0 -1 0 0 0 0 -1 0 0 0 0 -1 0 0 0 0 1 0"
       id="feColorMatrix23" /><feColorMatrix
       id="feColorMatrix25"
       type="hueRotate"
       values="180"
       result="color1"
       in="fbSourceGraphic" /><feColorMatrix
       id="feColorMatrix27"
       values="-1 0 0 0 1 0 -1 0 0 1 0 0 -1 0 1 -0.21 -0.72 -0.07 2 0 "
       result="color2" /></filter></defs><sodipodi:namedview
   pagecolor="#ffffff"
   bordercolor="#666666"
   borderopacity="1"
   objecttolerance="10"
   gridtolerance="10"
   guidetolerance="10"
   inkscape:pageopacity="0"
   inkscape:pageshadow="2"
   inkscape:window-width="1187"
   inkscape:window-height="765"
   id="namedview5"
   showgrid="false"
   inkscape:zoom="0.4609375"
   inkscape:cx="256"
   inkscape:cy="256"
   inkscape:window-x="406"
   inkscape:window-y="147"
   inkscape:window-maximized="0"
   inkscape:current-layer="Layer_1" />
<path
   d="M443.6,387.1L312.4,255.4l131.5-130c5.4-5.4,5.4-14.2,0-19.6l-37.4-37.6c-2.6-2.6-6.1-4-9.8-4c-3.7,0-7.2,1.5-9.8,4  L256,197.8L124.9,68.3c-2.6-2.6-6.1-4-9.8-4c-3.7,0-7.2,1.5-9.8,4L68,105.9c-5.4,5.4-5.4,14.2,0,19.6l131.5,130L68.4,387.1  c-2.6,2.6-4.1,6.1-4.1,9.8c0,3.7,1.4,7.2,4.1,9.8l37.4,37.6c2.7,2.7,6.2,4.1,9.8,4.1c3.5,0,7.1-1.3,9.8-4.1L256,313.1l130.7,131.1  c2.7,2.7,6.2,4.1,9.8,4.1c3.5,0,7.1-1.3,9.8-4.1l37.4-37.6c2.6-2.6,4.1-6.1,4.1-9.8C447.7,393.2,446.2,389.7,443.6,387.1z"
   id="path2"
   style="filter:url(#filter15)" />
</svg>