<?xml version="1.0" encoding="UTF-8" standalone="no"?>
<!-- Generator: Adobe Illustrator 16.2.1, SVG Export Plug-In . SVG Version: 6.00 Build 0)  -->

<svg
   xmlns:dc="http://purl.org/dc/elements/1.1/"
   xmlns:cc="http://creativecommons.org/ns#"
   xmlns:rdf="http://www.w3.org/1999/02/22-rdf-syntax-ns#"
   xmlns:svg="http://www.w3.org/2000/svg"
   xmlns="http://www.w3.org/2000/svg"
   xmlns:sodipodi="http://sodipodi.sourceforge.net/DTD/sodipodi-0.dtd"
   xmlns:inkscape="http://www.inkscape.org/namespaces/inkscape"
   version="1.1"
   id="Layer_1"
   x="0px"
   y="0px"
   width="512px"
   height="512px"
   viewBox="0 0 512 512"
   style="enable-background:new 0 0 512 512;"
   xml:space="preserve"
   sodipodi:docname="fork-repo.svg"
   inkscape:version="0.92.5 (2060ec1f9f, 2020-04-08)"><metadata
   id="metadata15"><rdf:RDF><cc:Work
       rdf:about=""><dc:format>image/svg+xml</dc:format><dc:type
         rdf:resource="http://purl.org/dc/dcmitype/StillImage" /><dc:title></dc:title></cc:Work></rdf:RDF></metadata><defs
   id="defs13"><filter
     style="color-interpolation-filters:sRGB;"
     inkscape:label="Invert"
     id="filter21"><feColorMatrix
       type="hueRotate"
       values="180"
       result="color1"
       id="feColorMatrix17" /><feColorMatrix
       values="-1 0 0 0 1 0 -1 0 0 1 0 0 -1 0 1 -0.21 -0.72 -0.07 2 0 "
       result="color2"
       id="feColorMatrix19" /></filter></defs><sodipodi:namedview
   pagecolor="#ffffff"
   bordercolor="#666666"
   borderopacity="1"
   objecttolerance="10"
   gridtolerance="10"
   guidetolerance="10"
   inkscape:pageopacity="0"
   inkscape:pageshadow="2"
   inkscape:window-width="769"
   inkscape:window-height="480"
   id="namedview11"
   showgrid="false"
   inkscape:zoom="0.4609375"
   inkscape:cx="256"
   inkscape:cy="256"
   inkscape:window-x="0"
   inkscape:window-y="25"
   inkscape:window-maximized="0"
   inkscape:current-layer="Layer_1" />
<style
   type="text/css"
   id="style2">
<![CDATA[
	.st0{fill:#010101;}
]]>
</style>
<g
   id="g8"
   style="filter:url(#filter21)">
	<polygon
   class="st0"
   points="416,80 368,80 368,32 304,32 304,80 256,80 256,144 304,144 304,192 368,192 368,144 416,144  "
   id="polygon4" />
	<path
   class="st0"
   d="M304,240c0,38.6-4.5,42.3-14.4,50.3c-7.4,6-22.2,7.1-39.4,8.3c-9.5,0.7-20.4,1.5-31.4,3.3   c-9.4,1.5-18.4,4.7-26.8,8.8V151.4c19.1-11.1,32-31.7,32-55.4c0-35.3-28.7-64-64-64S96,60.7,96,96c0,23.7,12.9,44.3,32,55.4v209.2   c-19.1,11.1-32,31.7-32,55.4c0,35.3,28.7,64,64,64s64-28.7,64-64c0-15.7-5.7-30.1-15-41.2c6.7-4.8,13.9-8.7,20.2-9.7   c8.1-1.3,16.6-1.9,25.6-2.6c24.4-1.7,52.1-3.7,75.2-22.5c30.9-25.1,37.5-52.1,38-94.9l0,0V240H304z M160,64c17.6,0,32,14.4,32,32   s-14.4,32-32,32s-32-14.4-32-32S142.4,64,160,64z M160,448c-17.6,0-32-14.4-32-32s14.4-32,32-32s32,14.4,32,32S177.6,448,160,448z"
   id="path6" />
</g>
</svg>