<?xml version="1.0" encoding="UTF-8" standalone="no"?>
<!-- Generator: Adobe Illustrator 16.2.1, SVG Export Plug-In . SVG Version: 6.00 Build 0)  -->

<svg
   xmlns:dc="http://purl.org/dc/elements/1.1/"
   xmlns:cc="http://creativecommons.org/ns#"
   xmlns:rdf="http://www.w3.org/1999/02/22-rdf-syntax-ns#"
   xmlns:svg="http://www.w3.org/2000/svg"
   xmlns="http://www.w3.org/2000/svg"
   xmlns:sodipodi="http://sodipodi.sourceforge.net/DTD/sodipodi-0.dtd"
   xmlns:inkscape="http://www.inkscape.org/namespaces/inkscape"
   version="1.1"
   id="Layer_1"
   x="0px"
   y="0px"
   width="512px"
   height="512px"
   viewBox="0 0 512 512"
   style="enable-background:new 0 0 512 512;"
   xml:space="preserve"
   sodipodi:docname="ios-eye.svg"
   inkscape:version="0.92.5 (2060ec1f9f, 2020-04-08)"><metadata
   id="metadata13"><rdf:RDF><cc:Work
       rdf:about=""><dc:format>image/svg+xml</dc:format><dc:type
         rdf:resource="http://purl.org/dc/dcmitype/StillImage" /><dc:title></dc:title></cc:Work></rdf:RDF></metadata><defs
   id="defs11"><filter
     style="color-interpolation-filters:sRGB;"
     inkscape:label="Invert"
     id="filter19"><feColorMatrix
       type="hueRotate"
       values="180"
       result="color1"
       id="feColorMatrix15" /><feColorMatrix
       values="-1 0 0 0 1 0 -1 0 0 1 0 0 -1 0 1 -0.21 -0.72 -0.07 2 0 "
       result="color2"
       id="feColorMatrix17" /></filter></defs><sodipodi:namedview
   pagecolor="#ffffff"
   bordercolor="#666666"
   borderopacity="1"
   objecttolerance="10"
   gridtolerance="10"
   guidetolerance="10"
   inkscape:pageopacity="0"
   inkscape:pageshadow="2"
   inkscape:window-width="769"
   inkscape:window-height="480"
   id="namedview9"
   showgrid="false"
   inkscape:zoom="0.4609375"
   inkscape:cx="256"
   inkscape:cy="256"
   inkscape:window-x="0"
   inkscape:window-y="25"
   inkscape:window-maximized="0"
   inkscape:current-layer="Layer_1" />
<g
   id="g6"
   style="filter:url(#filter19)">
	<path
   d="M447.1,256.2C401.8,204,339.2,144,256,144c-33.6,0-64.4,9.5-96.9,29.8C131.7,191,103.6,215.2,65,255l-1,1l6.7,6.9   C125.8,319.3,173.4,368,256,368c36.5,0,71.9-11.9,108.2-36.4c30.9-20.9,57.2-47.4,78.3-68.8l5.5-5.5L447.1,256.2z M256,336   c-44.1,0-80-35.9-80-80c0-44.1,35.9-80,80-80c44.1,0,80,35.9,80,80C336,300.1,300.1,336,256,336z"
   id="path2" />
	<path
   d="M250.4,226.8c0-6.9,2-13.4,5.5-18.8c-26.5,0-47.9,21.6-47.9,48.2c0,26.6,21.5,48.1,47.9,48.1s48-21.5,48-48.1v0   c-5.4,3.5-11.9,5.5-18.8,5.5C266,261.6,250.4,246,250.4,226.8z"
   id="path4" />
</g>
</svg>