<?xml version="1.0" encoding="UTF-8"?>
<svg viewBox="0 0 22 22" xmlns="http://www.w3.org/2000/svg">
<path d="m13.75 5.5h-10.083c-1.013 0-1.834 0.82-1.834 1.833v7.334c0 1.012 0.821 1.833 1.834 1.833h10.083c1.012 0 1.833-0.82 1.833-1.833v-0.786l3.212 1.835a0.916 0.916 0 0 0 1.372-0.796v-7.84a0.917 0.917 0 0 0-1.372-0.796l-3.212 1.835v-0.786c0-1.012-0.82-1.833-1.833-1.833zm0 3.667v5.5h-10.083v-7.334h10.083v1.834zm4.583 4.174-2.75-1.572v-1.538l2.75-1.572v4.682z" clip-rule="evenodd" fill="#1a85ff"/>
</svg>
