<?xml version="1.0" encoding="UTF-8"?>
<svg viewBox="0 0 22 22" xmlns="http://www.w3.org/2000/svg">
<path d="M6.84 5.5h-.022L3.424 2.106a.932.932 0 10-1.318 1.318L4.182 5.5h-.515c-1.013     0-1.834.82-1.834 1.833v7.334c0 1.012.821 1.833 1.834 1.833H13.75c.404 0 .777-.13 1.08-.352l3.746 3.746a.932.932     0 101.318-1.318l-4.31-4.31v-.024L13.75 12.41v.023l-5.1-5.099h.024L6.841 5.5zm6.91 4.274V7.333h-2.44L9.475     5.5h4.274c1.012 0 1.833.82 1.833 1.833v.786l3.212-1.835a.917.917 0 011.372.796v7.84c0     .344-.19.644-.47.8l-3.736-3.735 2.372 1.356V8.659l-2.75 1.571v1.377L13.75 9.774zM3.667 7.334h2.349l7.333 7.333H3.667V7.333z" clip-rule="evenodd" fill="#444"/>
</svg>
