<?xml version="1.0" encoding="UTF-8"?>
<svg viewBox="0 0 22 22" xmlns="http://www.w3.org/2000/svg">
<path d="m3.667 2.75h14.666c1.013 0 1.834 0.82 1.834 1.833v11c0 1.013-0.821 1.834-1.834 1.834h-2.75a0.917 0.917 0 0 1 0 1.833h-9.166a0.917 0.917 0 0 1 0-1.833h-2.75a1.833 1.833 0 0 1-1.834-1.834v-11c0-1.012 0.821-1.833 1.834-1.833zm0 1.833v11h14.666v-11h-14.666zm8.25 3.667c-3.75 0-5.5 1.604-5.5 6.417 2-3.896 5.5-3.667 5.5-3.667v1.274a0.5 0.5 0 0 0 0.813 0.39l3.287-2.65a0.5 0.5 0 0 0 0-0.778l-3.287-2.65a0.5 0.5 0 0 0-0.813 0.39v1.274z" clip-rule="evenodd" fill="#1a85ff"/>
</svg>
